<svg width="232" height="37" viewBox="0 0 232 37" fill="none" xmlns="http://www.w3.org/2000/svg">
<path d="M29.4638 1.296V36H26.1518C25.6398 36 25.2078 35.92 24.8558 35.76C24.5198 35.584 24.1918 35.296 23.8718 34.896L5.75175 11.76C5.84775 12.816 5.89575 13.792 5.89575 14.688V36H0.20775V1.296H3.59175C3.86375 1.296 4.09575 1.312 4.28775 1.344C4.49575 1.36 4.67175 1.408 4.81575 1.488C4.97575 1.552 5.12775 1.656 5.27175 1.8C5.41575 1.928 5.57575 2.104 5.75175 2.328L23.9438 25.56C23.8958 25 23.8558 24.448 23.8238 23.904C23.7918 23.36 23.7758 22.856 23.7758 22.392V1.296H29.4638ZM51.3701 20.856C51.3701 20.088 51.2581 19.368 51.0341 18.696C50.8261 18.008 50.5061 17.408 50.0741 16.896C49.6421 16.384 49.0901 15.984 48.4181 15.696C47.7621 15.392 46.9941 15.24 46.1141 15.24C44.4021 15.24 43.0501 15.728 42.0581 16.704C41.0821 17.68 40.4581 19.064 40.1861 20.856H51.3701ZM40.0661 24.432C40.1621 25.696 40.3861 26.792 40.7381 27.72C41.0901 28.632 41.5541 29.392 42.1301 30C42.7061 30.592 43.3861 31.04 44.1701 31.344C44.9701 31.632 45.8501 31.776 46.8101 31.776C47.7701 31.776 48.5941 31.664 49.2821 31.44C49.9861 31.216 50.5941 30.968 51.1061 30.696C51.6341 30.424 52.0901 30.176 52.4741 29.952C52.8741 29.728 53.2581 29.616 53.6261 29.616C54.1221 29.616 54.4901 29.8 54.7301 30.168L56.4341 32.328C55.7781 33.096 55.0421 33.744 54.2261 34.272C53.4101 34.784 52.5541 35.2 51.6581 35.52C50.7781 35.824 49.8741 36.04 48.9461 36.168C48.0341 36.296 47.1461 36.36 46.2821 36.36C44.5701 36.36 42.9781 36.08 41.5061 35.52C40.0341 34.944 38.7541 34.104 37.6661 33C36.5781 31.88 35.7221 30.504 35.0981 28.872C34.4741 27.224 34.1621 25.32 34.1621 23.16C34.1621 21.48 34.4341 19.904 34.9781 18.432C35.5221 16.944 36.2981 15.656 37.3061 14.568C38.3301 13.464 39.5701 12.592 41.0261 11.952C42.4981 11.312 44.1541 10.992 45.9941 10.992C47.5461 10.992 48.9781 11.24 50.2901 11.736C51.6021 12.232 52.7301 12.96 53.6741 13.92C54.6181 14.864 55.3541 16.032 55.8821 17.424C56.4261 18.8 56.6981 20.376 56.6981 22.152C56.6981 23.048 56.6021 23.656 56.4101 23.976C56.2181 24.28 55.8501 24.432 55.3061 24.432H40.0661ZM95.9786 11.376L88.1546 36H83.4026C82.8586 36 82.4826 35.648 82.2746 34.944L77.8586 20.712C77.7146 20.232 77.5786 19.76 77.4506 19.296C77.3386 18.816 77.2426 18.336 77.1626 17.856C77.0666 18.336 76.9546 18.824 76.8266 19.32C76.7146 19.8 76.5866 20.28 76.4426 20.76L71.9546 34.944C71.7626 35.648 71.3386 36 70.6826 36H66.1226L58.3226 11.376H63.0506C63.4826 11.376 63.8506 11.48 64.1546 11.688C64.4586 11.896 64.6586 12.16 64.7546 12.48L68.2826 25.632C68.4586 26.352 68.6106 27.056 68.7386 27.744C68.8826 28.432 69.0026 29.12 69.0986 29.808C69.2746 29.12 69.4586 28.432 69.6506 27.744C69.8586 27.056 70.0746 26.352 70.2986 25.632L74.3786 12.432C74.4746 12.112 74.6586 11.848 74.9306 11.64C75.2186 11.432 75.5626 11.328 75.9626 11.328H78.5786C78.9946 11.328 79.3466 11.432 79.6346 11.64C79.9386 11.848 80.1386 12.112 80.2346 12.432L84.1946 25.632C84.4026 26.352 84.5946 27.064 84.7706 27.768C84.9626 28.456 85.1466 29.144 85.3226 29.832C85.5306 28.472 85.8266 27.072 86.2106 25.632L89.8346 12.48C89.9466 12.16 90.1466 11.896 90.4346 11.688C90.7226 11.48 91.0666 11.376 91.4666 11.376H95.9786ZM114.093 16.176C113.933 16.432 113.765 16.616 113.589 16.728C113.413 16.824 113.189 16.872 112.917 16.872C112.629 16.872 112.317 16.792 111.981 16.632C111.661 16.472 111.285 16.296 110.853 16.104C110.421 15.896 109.925 15.712 109.365 15.552C108.821 15.392 108.173 15.312 107.421 15.312C106.253 15.312 105.333 15.56 104.661 16.056C104.005 16.552 103.677 17.2 103.677 18C103.677 18.528 103.845 18.976 104.181 19.344C104.533 19.696 104.989 20.008 105.549 20.28C106.125 20.552 106.773 20.8 107.493 21.024C108.213 21.232 108.941 21.464 109.677 21.72C110.429 21.976 111.165 22.272 111.885 22.608C112.605 22.928 113.245 23.344 113.805 23.856C114.381 24.352 114.837 24.952 115.173 25.656C115.525 26.36 115.701 27.208 115.701 28.2C115.701 29.384 115.485 30.48 115.053 31.488C114.637 32.48 114.013 33.344 113.181 34.08C112.349 34.8 111.317 35.368 110.085 35.784C108.869 36.184 107.461 36.384 105.861 36.384C105.013 36.384 104.181 36.304 103.365 36.144C102.565 36 101.789 35.792 101.037 35.52C100.301 35.248 99.6126 34.928 98.9726 34.56C98.3486 34.192 97.7966 33.792 97.3166 33.36L98.6846 31.104C98.8606 30.832 99.0686 30.624 99.3086 30.48C99.5486 30.336 99.8526 30.264 100.221 30.264C100.589 30.264 100.933 30.368 101.253 30.576C101.589 30.784 101.973 31.008 102.405 31.248C102.837 31.488 103.341 31.712 103.917 31.92C104.509 32.128 105.253 32.232 106.149 32.232C106.853 32.232 107.453 32.152 107.949 31.992C108.461 31.816 108.877 31.592 109.197 31.32C109.533 31.048 109.773 30.736 109.917 30.384C110.077 30.016 110.157 29.64 110.157 29.256C110.157 28.68 109.981 28.208 109.629 27.84C109.293 27.472 108.837 27.152 108.261 26.88C107.701 26.608 107.053 26.368 106.317 26.16C105.597 25.936 104.853 25.696 104.085 25.44C103.333 25.184 102.589 24.888 101.853 24.552C101.133 24.2 100.485 23.76 99.9086 23.232C99.3486 22.704 98.8926 22.056 98.5406 21.288C98.2046 20.52 98.0366 19.592 98.0366 18.504C98.0366 17.496 98.2366 16.536 98.6366 15.624C99.0366 14.712 99.6206 13.92 100.389 13.248C101.173 12.56 102.141 12.016 103.293 11.616C104.461 11.2 105.805 10.992 107.325 10.992C109.021 10.992 110.565 11.272 111.957 11.832C113.349 12.392 114.509 13.128 115.437 14.04L114.093 16.176ZM126.162 0.335999V36H120.234V0.335999H126.162ZM147.933 20.856C147.933 20.088 147.821 19.368 147.597 18.696C147.389 18.008 147.069 17.408 146.637 16.896C146.205 16.384 145.653 15.984 144.981 15.696C144.325 15.392 143.557 15.24 142.677 15.24C140.965 15.24 139.613 15.728 138.621 16.704C137.645 17.68 137.021 19.064 136.749 20.856H147.933ZM136.629 24.432C136.725 25.696 136.949 26.792 137.301 27.72C137.653 28.632 138.117 29.392 138.693 30C139.269 30.592 139.949 31.04 140.733 31.344C141.533 31.632 142.413 31.776 143.373 31.776C144.333 31.776 145.157 31.664 145.845 31.44C146.549 31.216 147.157 30.968 147.669 30.696C148.197 30.424 148.653 30.176 149.037 29.952C149.437 29.728 149.821 29.616 150.189 29.616C150.685 29.616 151.053 29.8 151.293 30.168L152.997 32.328C152.341 33.096 151.605 33.744 150.789 34.272C149.973 34.784 149.117 35.2 148.221 35.52C147.341 35.824 146.437 36.04 145.509 36.168C144.597 36.296 143.709 36.36 142.845 36.36C141.133 36.36 139.541 36.08 138.069 35.52C136.597 34.944 135.317 34.104 134.229 33C133.141 31.88 132.285 30.504 131.661 28.872C131.037 27.224 130.725 25.32 130.725 23.16C130.725 21.48 130.997 19.904 131.541 18.432C132.085 16.944 132.861 15.656 133.869 14.568C134.893 13.464 136.133 12.592 137.589 11.952C139.061 11.312 140.717 10.992 142.557 10.992C144.109 10.992 145.541 11.24 146.853 11.736C148.165 12.232 149.293 12.96 150.237 13.92C151.181 14.864 151.917 16.032 152.445 17.424C152.989 18.8 153.261 20.376 153.261 22.152C153.261 23.048 153.165 23.656 152.973 23.976C152.781 24.28 152.413 24.432 151.869 24.432H136.629ZM165.683 36.384C163.539 36.384 161.891 35.784 160.739 34.584C159.603 33.368 159.035 31.696 159.035 29.568V15.816H156.515C156.195 15.816 155.923 15.712 155.699 15.504C155.475 15.296 155.363 14.984 155.363 14.568V12.216L159.323 11.568L160.571 4.848C160.651 4.528 160.803 4.28 161.027 4.104C161.251 3.928 161.539 3.84 161.891 3.84H164.963V11.592H175.211L176.483 4.848C176.563 4.528 176.707 4.28 176.915 4.104C177.139 3.928 177.435 3.84 177.803 3.84H180.851V11.592H187.427V15.816H180.851V29.16C180.851 29.928 181.043 30.528 181.427 30.96C181.811 31.392 182.331 31.608 182.987 31.608C183.339 31.608 183.643 31.568 183.899 31.488C184.155 31.392 184.371 31.296 184.547 31.2C184.739 31.104 184.907 31.016 185.051 30.936C185.195 30.84 185.339 30.792 185.483 30.792C185.659 30.792 185.803 30.84 185.915 30.936C186.027 31.016 186.147 31.144 186.275 31.32L188.051 34.2C187.187 34.92 186.195 35.464 185.075 35.832C183.955 36.2 182.795 36.384 181.595 36.384C179.451 36.384 177.803 35.784 176.651 34.584C175.499 33.368 174.923 31.696 174.923 29.568V15.816H164.963V29.16C164.963 29.928 165.147 30.528 165.515 30.96C165.899 31.392 166.419 31.608 167.075 31.608C167.443 31.608 167.747 31.568 167.987 31.488C168.243 31.392 168.459 31.296 168.635 31.2C168.827 31.104 168.995 31.016 169.139 30.936C169.283 30.84 169.427 30.792 169.571 30.792C169.747 30.792 169.891 30.84 170.003 30.936C170.115 31.016 170.235 31.144 170.363 31.32L172.139 34.2C171.275 34.92 170.283 35.464 169.163 35.832C168.043 36.2 166.883 36.384 165.683 36.384ZM206.901 20.856C206.901 20.088 206.789 19.368 206.565 18.696C206.357 18.008 206.037 17.408 205.605 16.896C205.173 16.384 204.621 15.984 203.949 15.696C203.293 15.392 202.525 15.24 201.645 15.24C199.933 15.24 198.581 15.728 197.589 16.704C196.613 17.68 195.989 19.064 195.717 20.856H206.901ZM195.597 24.432C195.693 25.696 195.917 26.792 196.269 27.72C196.621 28.632 197.085 29.392 197.661 30C198.237 30.592 198.917 31.04 199.701 31.344C200.501 31.632 201.381 31.776 202.341 31.776C203.301 31.776 204.125 31.664 204.813 31.44C205.517 31.216 206.125 30.968 206.637 30.696C207.165 30.424 207.621 30.176 208.005 29.952C208.405 29.728 208.789 29.616 209.157 29.616C209.653 29.616 210.021 29.8 210.261 30.168L211.965 32.328C211.309 33.096 210.573 33.744 209.757 34.272C208.941 34.784 208.085 35.2 207.189 35.52C206.309 35.824 205.405 36.04 204.477 36.168C203.565 36.296 202.677 36.36 201.813 36.36C200.101 36.36 198.509 36.08 197.037 35.52C195.565 34.944 194.285 34.104 193.197 33C192.109 31.88 191.253 30.504 190.629 28.872C190.005 27.224 189.693 25.32 189.693 23.16C189.693 21.48 189.965 19.904 190.509 18.432C191.053 16.944 191.829 15.656 192.837 14.568C193.861 13.464 195.101 12.592 196.557 11.952C198.029 11.312 199.685 10.992 201.525 10.992C203.077 10.992 204.509 11.24 205.821 11.736C207.133 12.232 208.261 12.96 209.205 13.92C210.149 14.864 210.885 16.032 211.413 17.424C211.957 18.8 212.229 20.376 212.229 22.152C212.229 23.048 212.133 23.656 211.941 23.976C211.749 24.28 211.381 24.432 210.837 24.432H195.597ZM222.27 15.648C223.038 14.176 223.95 13.024 225.006 12.192C226.062 11.344 227.31 10.92 228.75 10.92C229.886 10.92 230.798 11.168 231.486 11.664L231.102 16.104C231.022 16.392 230.902 16.6 230.742 16.728C230.598 16.84 230.398 16.896 230.142 16.896C229.902 16.896 229.542 16.856 229.062 16.776C228.598 16.696 228.142 16.656 227.694 16.656C227.038 16.656 226.454 16.752 225.942 16.944C225.43 17.136 224.966 17.416 224.55 17.784C224.15 18.136 223.79 18.568 223.47 19.08C223.166 19.592 222.878 20.176 222.606 20.832V36H216.678V11.376H220.158C220.766 11.376 221.19 11.488 221.43 11.712C221.67 11.92 221.83 12.304 221.91 12.864L222.27 15.648Z" fill="#538FFF"/>
</svg>
